<svg xmlns="http://www.w3.org/2000/svg" width="96" height="96" viewBox="0 0 96 96" fill="none" role="img" aria-label="Clear value icon">
  <defs>
    <linearGradient id="about-value-bg" x1="12" y1="12" x2="84" y2="84" gradientUnits="userSpaceOnUse">
      <stop stop-color="#EAF2FF"/>
      <stop offset="1" stop-color="#D8E8FF"/>
    </linearGradient>
    <linearGradient id="about-value-accent" x1="24" y1="24" x2="72" y2="72" gradientUnits="userSpaceOnUse">
      <stop stop-color="#0B2A8C"/>
      <stop offset="1" stop-color="#1F7CFF"/>
    </linearGradient>
  </defs>
  <rect x="10" y="10" width="76" height="76" rx="20" fill="url(#about-value-bg)"/>
  <path d="M27 45.5L47.5 25H65L71 31V48.5L50.5 69H33L27 63V45.5Z" stroke="url(#about-value-accent)" stroke-width="3" stroke-linejoin="round"/>
  <circle cx="58" cy="38" r="3.5" fill="#0B2A8C"/>
  <path d="M41 57C41 54.8 42.9 53 45.2 53H48.8C51.1 53 53 51.2 53 49C53 46.8 51.1 45 48.8 45H45.2C42.9 45 41 43.2 41 41C41 38.8 42.9 37 45.2 37H49" stroke="#0B2A8C" stroke-width="3" stroke-linecap="round"/>
  <path d="M47 34.5V57.5" stroke="#0B2A8C" stroke-width="3" stroke-linecap="round"/>
</svg>
