<svg width="24" height="24" viewBox="0 0 24 24" fill="none" xmlns="http://www.w3.org/2000/svg">
<path d="M0 11.6571C0 5.21908 5.21908 0 11.6571 0C18.0952 0 23.3143 5.21908 23.3143 11.6571C23.3143 18.0952 18.0952 23.3143 11.6571 23.3143C5.21908 23.3143 0 18.0952 0 11.6571Z" fill="white"/>
<path d="M12.0867 4.77862C14.3239 4.77862 15.8331 5.745 16.6935 6.55252L20.056 3.26949C17.9909 1.34998 15.3035 0.171799 12.0867 0.171799C7.42694 0.171799 3.40258 2.84588 1.44336 6.73785L5.29562 9.72964C6.26199 6.85699 8.93607 4.77862 12.0867 4.77862Z" fill="#EA4335"/>
<path d="M23.5245 12.3509C23.5245 11.3713 23.4451 10.6564 23.273 9.9151H12.0869V14.3366H18.653C18.5206 15.4353 17.8057 17.0901 16.2172 18.2021L19.9768 21.1144C22.2272 19.0361 23.5245 15.9781 23.5245 12.3509Z" fill="#4285F4"/>
<path d="M5.30822 14.4424C5.0567 13.701 4.91108 12.9068 4.91108 12.086C4.91108 11.2653 5.0567 10.471 5.29498 9.72964L1.44272 6.73785C0.635205 8.35289 0.171875 10.1665 0.171875 12.086C0.171875 14.0055 0.635205 15.8191 1.44272 17.4342L5.30822 14.4424Z" fill="#FBBC05"/>
<path d="M12.0852 24.0006C15.302 24.0006 18.0026 22.9415 19.975 21.1147L16.2155 18.2023C15.2094 18.9039 13.8591 19.3937 12.0852 19.3937C8.93455 19.3937 6.26047 17.3154 5.30734 14.4427L1.45508 17.4345C3.4143 21.3265 7.42542 24.0006 12.0852 24.0006Z" fill="#34A853"/>
</svg>
