<svg xmlns="http://www.w3.org/2000/svg" width="22" height="22" viewBox="0 0 22 22" fill="none">
    <path
            fill-rule="evenodd"
            clip-rule="evenodd"
            d="M10.5627 0C7.69403 0 7.33433 0.0121593 6.2077 0.0635638C5.08343 0.114843 4.31559 0.293417 3.64373 0.554548C2.94914 0.824443 2.36008 1.18562 1.77283 1.77283C1.18562 2.36008 0.824443 2.94914 0.554548 3.64373C0.293417 4.31559 0.114843 5.08343 0.0635638 6.2077C0.0121593 7.33433 0 7.69403 0 10.5627C0 13.4313 0.0121593 13.791 0.0635638 14.9177C0.114843 16.0419 0.293417 16.8098 0.554548 17.4816C0.824443 18.1762 1.18562 18.7653 1.77283 19.3525C2.36008 19.9398 2.94914 20.3009 3.64373 20.5709C4.31559 20.832 5.08343 21.0105 6.2077 21.0618C7.33433 21.1132 7.69403 21.1254 10.5627 21.1254C13.4313 21.1254 13.791 21.1132 14.9177 21.0618C16.0419 21.0105 16.8098 20.832 17.4816 20.5709C18.1762 20.3009 18.7653 19.9398 19.3525 19.3525C19.9398 18.7653 20.3009 18.1762 20.5709 17.4816C20.832 16.8098 21.0105 16.0419 21.0618 14.9177C21.1132 13.791 21.1254 13.4313 21.1254 10.5627C21.1254 7.69403 21.1132 7.33433 21.0618 6.2077C21.0105 5.08343 20.832 4.31559 20.5709 3.64373C20.3009 2.94914 19.9398 2.36008 19.3525 1.77283C18.7653 1.18562 18.1762 0.824443 17.4816 0.554548C16.8098 0.293417 16.0419 0.114843 14.9177 0.0635638C13.791 0.0121593 13.4313 0 10.5627 0ZM10.5628 1.90224C13.3831 1.90224 13.7172 1.91302 14.831 1.96383C15.8608 2.01079 16.4201 2.18287 16.7923 2.32752C17.2853 2.51914 17.6372 2.74802 18.0068 3.11767C18.3765 3.48727 18.6053 3.83913 18.797 4.33217C18.9416 4.70437 19.1137 5.26366 19.1606 6.29351C19.2115 7.4073 19.2222 7.74139 19.2222 10.5618C19.2222 13.3821 19.2115 13.7162 19.1606 14.83C19.1137 15.8598 18.9416 16.4191 18.797 16.7913C18.6053 17.2844 18.3765 17.6362 18.0068 18.0058C17.6372 18.3755 17.2853 18.6043 16.7923 18.796C16.4201 18.9406 15.8608 19.1127 14.831 19.1597C13.7173 19.2105 13.3833 19.2212 10.5628 19.2212C7.74217 19.2212 7.40817 19.2105 6.2945 19.1597C5.26465 19.1127 4.70536 18.9406 4.33316 18.796C3.84012 18.6043 3.48826 18.3755 3.11866 18.0058C2.74906 17.6362 2.52013 17.2844 2.32851 16.7913C2.18386 16.4191 2.01178 15.8598 1.96482 14.83C1.91401 13.7162 1.90323 13.3821 1.90323 10.5618C1.90323 7.74139 1.91401 7.4073 1.96482 6.29351C2.01178 5.26366 2.18386 4.70437 2.32851 4.33217C2.52013 3.83913 2.74901 3.48727 3.11866 3.11767C3.48826 2.74802 3.84012 2.51914 4.33316 2.32752C4.70536 2.18287 5.26465 2.01079 6.2945 1.96383C7.40829 1.91302 7.74238 1.90224 10.5628 1.90224Z"
            fill="white"
    />
    <path
            fill-rule="evenodd"
            clip-rule="evenodd"
            d="M10.5626 14.3722C8.45883 14.3722 6.75342 12.6668 6.75342 10.5631C6.75342 8.45931 8.45883 6.75391 10.5626 6.75391C12.6663 6.75391 14.3717 8.45931 14.3717 10.5631C14.3717 12.6668 12.6663 14.3722 10.5626 14.3722ZM10.5625 4.69336C7.32158 4.69336 4.69434 7.3206 4.69434 10.5615C4.69434 13.8024 7.32158 16.4297 10.5625 16.4297C13.8034 16.4297 16.4307 13.8024 16.4307 10.5615C16.4307 7.3206 13.8034 4.69336 10.5625 4.69336Z"
            fill="white"
    />
    <path
            fill-rule="evenodd"
            clip-rule="evenodd"
            d="M17.6046 4.69318C17.6046 5.34137 17.0791 5.86679 16.4309 5.86679C15.7828 5.86679 15.2573 5.34137 15.2573 4.69318C15.2573 4.045 15.7828 3.51953 16.4309 3.51953C17.0791 3.51953 17.6046 4.045 17.6046 4.69318Z"
            fill="white"
    />
</svg>