<svg xmlns="http://www.w3.org/2000/svg" version="1.1" xmlns:xlink="http://www.w3.org/1999/xlink" xmlns:svgjs="http://svgjs.dev/svgjs" width="1500" height="284" viewBox="0 0 1500 284"><g transform="matrix(1,0,0,1,-0.9090909090909918,-0.06139235998935533)"><svg viewBox="0 0 396 75" data-background-color="#ffffff" preserveAspectRatio="xMidYMid meet" height="284" width="1500" xmlns="http://www.w3.org/2000/svg" xmlns:xlink="http://www.w3.org/1999/xlink"><g id="tight-bounds" transform="matrix(1,0,0,1,0.2400000000000091,0.016212771123946368)"><svg viewBox="0 0 395.52 74.96757445775208" height="74.96757445775208" width="395.52"><g><svg viewBox="0 0 512.5947662257322 97.15813689239886" height="74.96757445775208" width="395.52"><g transform="matrix(1,0,0,1,117.07476622573219,27.487736276333226)"><svg viewBox="0 0 395.52 42.182664339732405" height="42.182664339732405" width="395.52"><g id="textblocktransform"><svg viewBox="0 0 395.52 42.182664339732405" height="42.182664339732405" width="395.52" id="textblock"><g><svg viewBox="0 0 395.52 42.182664339732405" height="42.182664339732405" width="395.52"><g transform="matrix(1,0,0,1,0,0)"><svg width="395.52" viewBox="1.05 -26.9 257.83 27.5" height="42.182664339732405" data-palette-color="#010c80"><path d="M12.65 0.6Q6.8 0.6 3.93-1.95 1.05-4.5 1.05-9.8L1.05-9.8Q1.05-14.65 2.55-18.53 4.05-22.4 7.25-24.65 10.45-26.9 15.25-26.9L15.25-26.9Q20.25-26.9 22.9-24.6 25.55-22.3 25.55-17.85L25.55-17.85Q25.55-16.3 25.15-14.15L25.15-14.15 24.75-11.95 5.7-11.95Q5.55-11.25 5.55-10.05L5.55-10.05Q5.55-6.5 7.28-4.78 9-3.05 12.55-3.05L12.55-3.05Q15.4-3.05 17.43-4.5 19.45-5.95 19.95-8.95L19.95-8.95 24.25-8.95Q23.5-4.35 20.3-1.88 17.1 0.6 12.65 0.6L12.65 0.6ZM6.35-15.6L20.9-15.6Q21.1-16.3 21.1-17.55L21.1-17.55Q21.1-23.25 15.1-23.25L15.1-23.25Q11.7-23.25 9.47-21.28 7.25-19.3 6.35-15.6L6.35-15.6ZM39 0.6Q33.7 0.6 31.27-1.9 28.85-4.4 28.85-9.65L28.85-9.65Q28.85-14.15 30.17-18.05 31.5-21.95 34.45-24.43 37.4-26.9 41.95-26.9L41.95-26.9Q47.05-26.9 49.32-24.63 51.6-22.35 51.6-18.4L51.6-18.4Q51.6-17.75 51.5-16.55L51.5-16.55 47-16.55Q47.05-17.05 47.05-18L47.05-18Q47.05-20.45 45.97-21.85 44.9-23.25 42.1-23.25L42.1-23.25Q38.5-23.25 36.5-20.7 34.5-18.15 33.8-14.2L33.8-14.2Q33.45-12.15 33.45-9.9L33.45-9.9Q33.45-6.25 34.8-4.65 36.15-3.05 38.85-3.05L38.85-3.05Q41.95-3.05 43.75-4.98 45.55-6.9 46.1-9.75L46.1-9.75 50.35-9.75Q49.6-5.2 46.75-2.3 43.9 0.6 39 0.6L39 0.6ZM64.59 0.6Q59.55 0.6 56.72-2.15 53.9-4.9 53.9-9.8L53.9-9.8Q53.9-11.1 54.15-13.45L54.15-13.45Q55.15-20.25 58.55-23.58 61.95-26.9 67.8-26.9L67.8-26.9Q72.9-26.9 75.72-24.2 78.55-21.5 78.55-16.65L78.55-16.65Q78.55-15.85 78.25-12.85L78.25-12.85Q77.25-6.05 73.84-2.73 70.45 0.6 64.59 0.6L64.59 0.6ZM64.8-3.1Q68.75-3.1 70.9-5.55 73.05-8 73.84-13.45L73.84-13.45Q74.15-15.55 74.15-17.15L74.15-17.15Q74.05-20.15 72.42-21.7 70.8-23.25 67.59-23.25L67.59-23.25Q63.65-23.25 61.5-20.78 59.34-18.3 58.55-12.85L58.55-12.85Q58.3-11.1 58.3-9.15L58.3-9.15Q58.4-6.2 60.02-4.65 61.65-3.1 64.8-3.1L64.8-3.1ZM81.24 0L85.89-26.3 89.09-26.3 89.09-22.75 89.44-22.75Q92.74-26.9 97.69-26.9L97.69-26.9Q103.14-26.9 104.14-22.75L104.14-22.75 104.44-22.75Q106.09-24.75 108.34-25.83 110.59-26.9 112.94-26.9L112.94-26.9Q119.89-26.9 119.89-21.2L119.89-21.2Q119.89-20 119.69-18.95L119.69-18.95 116.34 0 111.94 0 115.14-18.15Q115.34-19.35 115.34-19.7L115.34-19.7Q115.34-21.65 114.37-22.45 113.39-23.25 111.74-23.25L111.74-23.25Q108.94-23.25 106.62-21.05 104.29-18.85 103.64-15.15L103.64-15.15 100.99 0 96.59 0 99.79-18.15Q99.94-19.05 99.94-19.75L99.94-19.75Q99.94-21.7 99.04-22.48 98.14-23.25 96.49-23.25L96.49-23.25Q94.69-23.25 92.97-22.28 91.24-21.3 89.99-19.45 88.74-17.6 88.29-15.15L88.29-15.15 85.64 0 81.24 0ZM122.89 0L127.54-26.3 130.74-26.3 130.74-22.75 131.09-22.75Q134.39-26.9 139.34-26.9L139.34-26.9Q144.79-26.9 145.79-22.75L145.79-22.75 146.09-22.75Q147.74-24.75 149.99-25.83 152.24-26.9 154.59-26.9L154.59-26.9Q161.54-26.9 161.54-21.2L161.54-21.2Q161.54-20 161.34-18.95L161.34-18.95 157.99 0 153.59 0 156.79-18.15Q156.99-19.35 156.99-19.7L156.99-19.7Q156.99-21.65 156.02-22.45 155.04-23.25 153.39-23.25L153.39-23.25Q150.59-23.25 148.27-21.05 145.94-18.85 145.29-15.15L145.29-15.15 142.64 0 138.24 0 141.44-18.15Q141.59-19.05 141.59-19.75L141.59-19.75Q141.59-21.7 140.69-22.48 139.79-23.25 138.14-23.25L138.14-23.25Q136.34-23.25 134.62-22.28 132.89-21.3 131.64-19.45 130.39-17.6 129.94-15.15L129.94-15.15 127.29 0 122.89 0ZM176.54 0.6Q170.69 0.6 167.81-1.95 164.94-4.5 164.94-9.8L164.94-9.8Q164.94-14.65 166.44-18.53 167.94-22.4 171.14-24.65 174.34-26.9 179.14-26.9L179.14-26.9Q184.14-26.9 186.79-24.6 189.44-22.3 189.44-17.85L189.44-17.85Q189.44-16.3 189.04-14.15L189.04-14.15 188.64-11.95 169.59-11.95Q169.44-11.25 169.44-10.05L169.44-10.05Q169.44-6.5 171.16-4.78 172.89-3.05 176.44-3.05L176.44-3.05Q179.29-3.05 181.31-4.5 183.34-5.95 183.84-8.95L183.84-8.95 188.14-8.95Q187.39-4.35 184.19-1.88 180.99 0.6 176.54 0.6L176.54 0.6ZM170.24-15.6L184.79-15.6Q184.99-16.3 184.99-17.55L184.99-17.55Q184.99-23.25 178.99-23.25L178.99-23.25Q175.59-23.25 173.36-21.28 171.14-19.3 170.24-15.6L170.24-15.6ZM192.34 0L196.99-26.3 200.34-26.3 200.14-22.35 200.44-22.35Q203.04-26.9 207.44-26.9L207.44-26.9Q208.79-26.9 209.74-26.5L209.74-26.5 208.99-22.25 207.14-22.25Q204.34-22.25 202.19-20.5 200.04-18.75 199.39-15.05L199.39-15.05 196.74 0 192.34 0ZM219.53 0.6Q214.23 0.6 211.81-1.9 209.38-4.4 209.38-9.65L209.38-9.65Q209.38-14.15 210.71-18.05 212.03-21.95 214.98-24.43 217.93-26.9 222.48-26.9L222.48-26.9Q227.58-26.9 229.86-24.63 232.13-22.35 232.13-18.4L232.13-18.4Q232.13-17.75 232.03-16.55L232.03-16.55 227.53-16.55Q227.58-17.05 227.58-18L227.58-18Q227.58-20.45 226.51-21.85 225.43-23.25 222.63-23.25L222.63-23.25Q219.03-23.25 217.03-20.7 215.03-18.15 214.33-14.2L214.33-14.2Q213.98-12.15 213.98-9.9L213.98-9.9Q213.98-6.25 215.33-4.65 216.68-3.05 219.38-3.05L219.38-3.05Q222.48-3.05 224.28-4.98 226.08-6.9 226.63-9.75L226.63-9.75 230.88-9.75Q230.13-5.2 227.28-2.3 224.43 0.6 219.53 0.6L219.53 0.6ZM245.98 0.6Q240.13 0.6 237.26-1.95 234.38-4.5 234.38-9.8L234.38-9.8Q234.38-14.65 235.88-18.53 237.38-22.4 240.58-24.65 243.78-26.9 248.58-26.9L248.58-26.9Q253.58-26.9 256.23-24.6 258.88-22.3 258.88-17.85L258.88-17.85Q258.88-16.3 258.48-14.15L258.48-14.15 258.08-11.95 239.03-11.95Q238.88-11.25 238.88-10.05L238.88-10.05Q238.88-6.5 240.61-4.78 242.33-3.05 245.88-3.05L245.88-3.05Q248.73-3.05 250.76-4.5 252.78-5.95 253.28-8.95L253.28-8.95 257.58-8.95Q256.83-4.35 253.63-1.88 250.43 0.6 245.98 0.6L245.98 0.6ZM239.68-15.6L254.23-15.6Q254.43-16.3 254.43-17.55L254.43-17.55Q254.43-23.25 248.43-23.25L248.43-23.25Q245.03-23.25 242.81-21.28 240.58-19.3 239.68-15.6L239.68-15.6Z" opacity="1" transform="matrix(1,0,0,1,0,0)" fill="#010c80" class="wordmark-text-0" data-fill-palette-color="primary" id="text-0"></path></svg></g></svg></g></svg></g></svg></g><g><svg viewBox="0 0 97.15813689239886 97.15813689239886" height="97.15813689239886" width="97.15813689239886"><g><svg></svg></g><g id="icon-0"><svg viewBox="0 0 97.15813689239886 97.15813689239886" height="97.15813689239886" width="97.15813689239886"><g><path d="M0 48.579c0-26.829 21.75-48.579 48.579-48.579 26.829 0 48.579 21.75 48.579 48.579 0 26.829-21.75 48.579-48.579 48.579-26.829 0-48.579-21.75-48.579-48.579zM48.579 93.354c24.729 0 44.775-20.046 44.775-44.775 0-24.729-20.046-44.775-44.775-44.775-24.729 0-44.775 20.046-44.775 44.775 0 24.729 20.046 44.775 44.775 44.775z" data-fill-palette-color="accent" fill="#0023ff" stroke="transparent"></path></g><g transform="matrix(1,0,0,1,25.56093226894322,25.560321412754853)"><svg viewBox="0 0 46.03627235451242 46.03749406688915" height="46.03749406688915" width="46.03627235451242"><g><svg xmlns="http://www.w3.org/2000/svg" xmlns:xlink="http://www.w3.org/1999/xlink" version="1.1" x="0" y="0" viewBox="10.125 10.001 79.99787701324497 80" style="enable-background:new 0 0 100 100;" xml:space="preserve" height="46.03749406688915" width="46.03627235451242" class="icon-dxe-0" data-fill-palette-color="accent" id="dxe-0"><path d="M84.797 57.023A1 1 0 0 0 83.924 56.51H77.084V52.76H83.924A1 1 0 0 0 84.924 51.76V11.001A1 1 0 0 0 83.924 10.001H11.125A1 1 0 0 0 10.125 11.001V51.76A1 1 0 0 0 11.125 52.76H17.965V56.511H11.125A1 1 0 0 0 10.125 57.511V76.132A1 1 0 0 0 11.125 77.132H17.965V89.001A1 1 0 1 0 19.965 89.001V77.132H24.343V89.001A1 1 0 1 0 26.343 89.001V77.132H68.704V89.001A1 1 0 1 0 70.704 89.001V77.132H75.082V89.001A1 1 0 1 0 77.082 89.001V77.132H83.922A1 1 0 0 0 84.795 76.619L89.996 67.308A1 1 0 0 0 89.996 66.333zM75.083 56.511H70.705V52.76H75.083zM68.705 52.76V56.511H26.344V52.76zM12.125 12.001H82.924V50.76H12.125zM19.965 52.76H24.343V56.511H19.965zM83.337 75.132H12.125V58.511H83.337L87.98 66.822z" fill="#0023ff" data-fill-palette-color="accent"></path><path d="M76.107 65.821H18.941A1 1 0 1 0 18.941 67.821H76.107A1 1 0 1 0 76.107 65.821" fill="#0023ff" data-fill-palette-color="accent"></path><path d="M47.618 41.613H47.688A10.13 10.13 0 0 0 54.888 38.567 10.18 10.18 0 0 0 57.829 31.312 10.18 10.18 0 0 0 54.792 24.097C52.851 22.176 50.292 21.162 47.553 21.146 41.924 21.184 37.375 25.805 37.412 31.448A10.18 10.18 0 0 0 40.449 38.663 10.13 10.13 0 0 0 47.618 41.613M40.982 36.544L43.219 36.529A13.7 13.7 0 0 0 45.247 39.472 8.4 8.4 0 0 1 41.715 37.384 9 9 0 0 1 40.982 36.544M39.98 27.883L42.439 27.867C42.209 28.679 42.045 29.561 41.984 30.518L39.256 30.536A8.4 8.4 0 0 1 39.98 27.883M55.372 34.647L52.806 34.664C53.032 33.914 53.19 33.106 53.254 32.243L55.985 32.225A8.4 8.4 0 0 1 55.372 34.647M46.685 36.506L46.697 38.38A12.6 12.6 0 0 1 45.288 36.515zM44.393 34.72A9.5 9.5 0 0 1 43.815 32.306L46.657 32.287 46.673 34.705zM48.485 36.494L50.027 36.484A12.6 12.6 0 0 1 48.499 38.528zM48.473 34.693L48.457 32.275 51.453 32.255A9.5 9.5 0 0 1 50.896 34.677zM55.973 30.424L53.248 30.442A12.6 12.6 0 0 0 52.758 27.798L55.219 27.782A8.4 8.4 0 0 1 55.973 30.424M51.448 30.454L48.445 30.474 48.427 27.826 50.872 27.81C51.151 28.602 51.361 29.485 51.448 30.454M48.416 26.026L48.401 23.738C48.859 24.228 49.484 24.996 50.057 26.015zM46.616 26.038L45.127 26.048C45.627 25.13 46.172 24.402 46.602 23.907zM46.628 27.839L46.646 30.487 43.802 30.506C43.877 29.54 44.064 28.649 44.333 27.855zM39.268 32.336L42.002 32.318C42.077 33.181 42.246 33.986 42.483 34.733L39.912 34.75A8.4 8.4 0 0 1 39.268 32.336M50.111 39.439A13.7 13.7 0 0 0 52.096 36.47L54.327 36.455A9 9 0 0 1 53.605 37.305 8.4 8.4 0 0 1 50.111 39.439M54.087 25.988L52.076 26.001A13.6 13.6 0 0 0 50.536 23.474 8.4 8.4 0 0 1 54.087 25.988M44.596 23.521C44.094 24.191 43.559 25.041 43.097 26.061L41.091 26.074A8.45 8.45 0 0 1 44.596 23.521" fill="#0023ff" data-fill-palette-color="accent"></path><path d="M64.029 24.629A1 1 0 0 0 62.694 25.097L62.417 25.673A15.89 15.89 0 0 0 47.547 15.442 15.895 15.895 0 0 0 32.07 27.573 1.002 1.002 0 0 0 33.042 28.811 1 1 0 0 0 34.012 28.049 13.9 13.9 0 0 1 47.547 17.442 13.89 13.89 0 0 1 60.537 26.351L59.938 26.063A1.001 1.001 0 0 0 59.071 27.866L61.833 29.195A1 1 0 0 0 62.598 29.237 1 1 0 0 0 63.169 28.727L64.498 25.964A1.003 1.003 0 0 0 64.029 24.629" fill="#0023ff" data-fill-palette-color="accent"></path><path d="M62.289 33.994A0.995 0.995 0 0 0 61.079 34.725 13.9 13.9 0 0 1 47.548 45.318 13.895 13.895 0 0 1 34.448 36.122L35.075 36.49A1 1 0 1 0 36.087 34.766L33.442 33.215A0.996 0.996 0 0 0 32.074 33.572L30.524 36.218A1 1 0 0 0 32.249 37.23L32.541 36.732A15.89 15.89 0 0 0 47.549 47.32 15.9 15.9 0 0 0 63.023 35.206 1.005 1.005 0 0 0 62.289 33.994" fill="#0023ff" data-fill-palette-color="accent"></path></svg></g></svg></g></svg></g></svg></g></svg></g><defs></defs></svg><rect width="395.52" height="74.96757445775208" fill="none" stroke="none" visibility="hidden"></rect></g></svg></g></svg>