<svg width="640" height="144" viewBox="0 0 640 144" fill="none" xmlns="http://www.w3.org/2000/svg" role="img" aria-labelledby="title desc">
  <title id="title">Medusa Commerce logo</title>
  <desc id="desc">A premium ecommerce logo with a gold shield emblem and Medusa Commerce wordmark.</desc>
  <defs>
    <linearGradient id="goldFill" x1="10" y1="6" x2="92" y2="110" gradientUnits="userSpaceOnUse">
      <stop offset="0" stop-color="#F7E6A5"/>
      <stop offset="0.32" stop-color="#E6C978"/>
      <stop offset="0.68" stop-color="#CDA45E"/>
      <stop offset="1" stop-color="#9E6B1F"/>
    </linearGradient>
    <linearGradient id="goldStroke" x1="17" y1="12" x2="86" y2="101" gradientUnits="userSpaceOnUse">
      <stop offset="0" stop-color="#FFF1B8"/>
      <stop offset="0.45" stop-color="#DDB86A"/>
      <stop offset="1" stop-color="#A66E21"/>
    </linearGradient>
    <linearGradient id="navyFill" x1="118" y1="30" x2="612" y2="112" gradientUnits="userSpaceOnUse">
      <stop offset="0" stop-color="#152238"/>
      <stop offset="1" stop-color="#0F172A"/>
    </linearGradient>
    <filter id="softGlow" x="0" y="0" width="112" height="118" filterUnits="userSpaceOnUse" color-interpolation-filters="sRGB">
      <feGaussianBlur stdDeviation="6" result="blur"/>
      <feColorMatrix in="blur" type="matrix" values="1 0 0 0 0.80 0 1 0 0 0.64 0 0 1 0 0.30 0 0 0 0.20 0"/>
      <feBlend in2="SourceGraphic" mode="normal"/>
    </filter>
  </defs>
  <g transform="translate(10 12)">
    <g filter="url(#softGlow)">
      <path d="M47.4 2.4C55.7 8.1 66.4 11.4 81 11.6C81.1 24.2 83.5 39.9 76.6 56.6C70.3 71.8 59.6 84.3 47.2 92.7C34.8 84.3 24.1 71.8 17.8 56.6C10.9 39.9 13.3 24.2 13.4 11.6C28.1 11.4 39 8.1 47.4 2.4Z" fill="url(#goldFill)" opacity="0.14"/>
    </g>
    <path d="M47.4 2.4C55.7 8.1 66.4 11.4 81 11.6C81.1 24.2 83.5 39.9 76.6 56.6C70.3 71.8 59.6 84.3 47.2 92.7C34.8 84.3 24.1 71.8 17.8 56.6C10.9 39.9 13.3 24.2 13.4 11.6C28.1 11.4 39 8.1 47.4 2.4Z" fill="url(#goldFill)"/>
    <path d="M47.4 9.7C54.2 14.2 63.1 16.7 75 17.1C75 28.2 77 40.2 71.1 54.3C66 66.6 57.5 76.8 47.2 84.2C36.9 76.8 28.3 66.6 23.2 54.3C17.4 40.2 19.4 28.2 19.4 17.1C31.5 16.7 40.5 14.2 47.4 9.7Z" fill="#FFF9EA" opacity="0.88"/>
    <path d="M47.4 2.4C55.7 8.1 66.4 11.4 81 11.6C81.1 24.2 83.5 39.9 76.6 56.6C70.3 71.8 59.6 84.3 47.2 92.7C34.8 84.3 24.1 71.8 17.8 56.6C10.9 39.9 13.3 24.2 13.4 11.6C28.1 11.4 39 8.1 47.4 2.4Z" stroke="url(#goldStroke)" stroke-width="2.8"/>
    <path d="M27 30C31 23 37 19 44 19" stroke="#A66E21" stroke-width="4.2" stroke-linecap="round"/>
    <path d="M67 30C63 23 57 19 50 19" stroke="#A66E21" stroke-width="4.2" stroke-linecap="round"/>
    <path d="M31.5 35C35.5 30 40 27.5 44.5 28" stroke="#B67C2B" stroke-width="3.4" stroke-linecap="round"/>
    <path d="M62.5 35C58.5 30 54 27.5 49.5 28" stroke="#B67C2B" stroke-width="3.4" stroke-linecap="round"/>
    <path d="M47.1 29.8C56 29.8 62.2 36.6 61.3 44.6C60.4 52.9 55.1 60.7 47.1 65.9C39.1 60.7 33.8 52.9 32.9 44.6C32 36.6 38.2 29.8 47.1 29.8Z" fill="#F9E8B4" stroke="#B67C2B" stroke-width="1.8"/>
    <path d="M39.3 44.2C41.4 41.9 43.6 41.3 45.7 42.9" stroke="#774719" stroke-width="1.9" stroke-linecap="round"/>
    <path d="M48.7 42.9C50.8 41.3 53 41.9 55.1 44.2" stroke="#774719" stroke-width="1.9" stroke-linecap="round"/>
    <path d="M43.4 53.1C45.4 54.2 48.3 54.2 50.7 53.1" stroke="#8B5A22" stroke-width="1.8" stroke-linecap="round"/>
    <path d="M28.5 45.5C24.8 49.1 24.9 54.6 28.8 58.1C31.6 60.7 35.1 61.7 38.4 62.6" stroke="#B67C2B" stroke-width="3.1" stroke-linecap="round"/>
    <path d="M65.7 45.5C69.4 49.1 69.3 54.6 65.4 58.1C62.6 60.7 59.1 61.7 55.8 62.6" stroke="#B67C2B" stroke-width="3.1" stroke-linecap="round"/>
  </g>
  <g transform="translate(120 18)">
    <text x="0" y="56" fill="url(#navyFill)" font-size="58" font-weight="700" font-family="Archivo, Inter, Arial, sans-serif" letter-spacing="3.4">MEDUSA</text>
    <g transform="translate(2 78)">
      <line x1="0" y1="8" x2="54" y2="8" stroke="#CDA45E" stroke-width="2.6" stroke-linecap="round"/>
      <text x="70" y="13" fill="#A66E21" font-size="19" font-weight="600" font-family="Archivo, Inter, Arial, sans-serif" letter-spacing="5.2">COMMERCE</text>
      <line x1="258" y1="8" x2="312" y2="8" stroke="#CDA45E" stroke-width="2.6" stroke-linecap="round"/>
    </g>
  </g>
</svg>
