<svg xmlns="http://www.w3.org/2000/svg" width="22" height="22" viewBox="0 0 22 22" fill="none">
    <g clip-path="url(#clip0_1197_20115)">
        <path d="M4.10563 22.0003C4.10563 21.7208 4.10563 21.4642 4.10563 21.2075C4.10563 20.2343 4.10366 19.2612 4.10825 18.288C4.10825 18.1753 4.07483 18.1069 3.98442 18.0372C2.45853 16.8569 1.31984 15.3867 0.627978 13.585C0.323979 12.7929 0.134634 11.9741 0.0507723 11.1292C-0.00622761 10.5554 -0.0186759 9.98279 0.0311172 9.41022C0.149048 8.06185 0.521185 6.78447 1.18225 5.59895C2.48146 3.26567 4.4247 1.67694 6.91435 0.727862C7.81979 0.382626 8.75931 0.169622 9.72176 0.0667022C10.5237 -0.0192811 11.3269 -0.0212352 12.1321 0.0556286C14.1278 0.245834 15.9583 0.888103 17.5982 2.0339C19.6384 3.45979 21.0366 5.35012 21.6911 7.7596C21.8601 8.38168 21.9597 9.01548 21.9879 9.66101C22.1268 12.8131 20.954 15.4173 18.636 17.5278C17.118 18.9101 15.3176 19.7549 13.3069 20.162C12.3811 20.3496 11.4416 20.4174 10.4988 20.3757C9.65493 20.3386 8.81893 20.2239 8.00324 19.9946C7.89448 19.964 7.80604 19.9744 7.70448 20.0311C6.54155 20.6753 5.37535 21.3137 4.2098 21.9534C4.18425 21.9677 4.15673 21.9775 4.10497 22.0009L4.10563 22.0003ZM12.1013 13.7433C14.1042 11.6165 16.0887 9.50858 18.0732 7.40069C18.011 7.39026 17.971 7.40655 17.9337 7.42674C16.2401 8.36409 14.5458 9.30079 12.8541 10.242C12.7513 10.2994 12.6962 10.2948 12.6143 10.2095C11.7285 9.28059 10.8388 8.35562 9.94976 7.43C9.91634 7.39548 9.879 7.36486 9.83641 7.32578C7.83879 9.448 5.85297 11.5572 3.86715 13.6664C3.87632 13.6762 3.88615 13.6859 3.89532 13.6957C3.93528 13.6755 3.9759 13.656 4.01587 13.6345C5.73242 12.6965 7.44962 11.7591 9.16421 10.8172C9.26117 10.7638 9.31621 10.7671 9.39352 10.8498C9.99103 11.4947 10.5938 12.135 11.1946 12.7766C11.4907 13.0932 11.7882 13.4084 12.102 13.7439L12.1013 13.7433Z" fill="#4272B8"></path>
        <path d="M12.102 13.7463C11.7876 13.4114 11.4908 13.0955 11.1946 12.7789C10.5932 12.1373 9.99107 11.497 9.39356 10.8521C9.3169 10.7694 9.26121 10.7668 9.16425 10.8196C7.44966 11.7608 5.73246 12.6988 4.01591 13.6368C3.9766 13.6583 3.93598 13.6779 3.89536 13.6981C3.88619 13.6883 3.87636 13.6785 3.86719 13.6687C5.85301 11.5595 7.83884 9.45035 9.83645 7.32812C9.87904 7.36721 9.91704 7.39782 9.9498 7.43235C10.8389 8.35797 11.7286 9.28294 12.6144 10.2118C12.6963 10.2978 12.7513 10.3017 12.8542 10.2444C14.5458 9.30314 16.2394 8.36644 17.9337 7.42909C17.9711 7.40825 18.0117 7.39261 18.0733 7.40303C16.0888 9.51093 14.1042 11.6188 12.1014 13.7456L12.102 13.7463Z" fill="white"></path>
    </g>
    <defs>
        <clipPath id="clip0_1197_20115">
            <rect width="22" height="22" fill="white"></rect>
        </clipPath>
    </defs>
</svg>