<svg width="64" height="64" viewBox="0 0 64 64" fill="none" xmlns="http://www.w3.org/2000/svg">
<circle cx="32" cy="32" r="20" fill="#FFF8E6" stroke="#D6A85F" stroke-width="2"/>
<path d="M26.9984 21.5H31.2168C32.1207 21.5 32.9127 22.1041 33.1519 22.9757L34.7821 28.9155C34.9927 29.6828 34.742 30.5032 34.1393 31.0155L31.6557 33.1276C33.2376 36.3191 35.7809 38.8624 38.9724 40.4443L41.0845 37.9607C41.5968 37.358 42.4172 37.1073 43.1845 37.3179L49.1243 38.9481C49.9959 39.1873 50.6 39.9793 50.6 40.8832V45.1016C50.6 46.4261 49.5261 47.5 48.2016 47.5H46.5C32.6929 47.5 21.5 36.3071 21.5 22.5V20.7984C21.5 19.4739 22.5739 18.4 23.8984 18.4H28.1168" fill="white"/>
<path d="M26.9984 21.5H31.2168C32.1207 21.5 32.9127 22.1041 33.1519 22.9757L34.7821 28.9155C34.9927 29.6828 34.742 30.5032 34.1393 31.0155L31.6557 33.1276C33.2376 36.3191 35.7809 38.8624 38.9724 40.4443L41.0845 37.9607C41.5968 37.358 42.4172 37.1073 43.1845 37.3179L49.1243 38.9481C49.9959 39.1873 50.6 39.9793 50.6 40.8832V45.1016C50.6 46.4261 49.5261 47.5 48.2016 47.5H46.5C32.6929 47.5 21.5 36.3071 21.5 22.5V20.7984C21.5 19.4739 22.5739 18.4 23.8984 18.4H28.1168" stroke="#475569" stroke-width="2" stroke-linecap="round" stroke-linejoin="round"/>
<path d="M39 21.5C42.5899 22.6911 45.4089 25.5101 46.6 29.1" stroke="#D6A85F" stroke-width="2.5" stroke-linecap="round"/>
<path d="M38 26C40.3242 26.9043 42.0957 28.6758 43 31" stroke="#D6A85F" stroke-width="2.5" stroke-linecap="round"/>
</svg>
